<?xml version="1.0" standalone="no"?><!DOCTYPE svg PUBLIC "-//W3C//DTD SVG 1.1//EN" "http://www.w3.org/Graphics/SVG/1.1/DTD/svg11.dtd"><svg t="1732243407765" class="icon" viewBox="0 0 1045 1024" version="1.1" xmlns="http://www.w3.org/2000/svg" p-id="43966" xmlns:xlink="http://www.w3.org/1999/xlink" width="204.1015625" height="200"><path d="M955.690647 150.524057H763.846508l-33.986178-74.307905C720.217995 55.149608 693.37616 37.912196 670.207596 37.912196H373.898506c-23.168564 0-51.080366 16.706641-62.024353 37.128678l-40.456526 75.483183H75.824393c-23.168564 0-42.124663 18.956098-42.124663 42.124663v564.251431c0 23.168564 18.956098 42.124663 42.124663 42.124663h879.866254c23.168564 0 42.124663-18.956098 42.124663-42.124663V192.64872c0-23.168564-18.956098-42.124663-42.124663-42.124663z" fill="#DDDDDD" p-id="43967"></path><path d="M746.971368 79.489238l-0.261173-0.589745c-9.34325-20.413612-34.828671-37.18344-57.479102-38.207069l17.747121 38.796814h39.993154z m225.569144 73.71816h-31.593497v18.185217L364.963865 150.524057s-19.65958 56.868295 52.655828 56.868295h478.114922s32.229579-0.804581 45.208188 25.29586v453.177121c0 23.168564-18.956098 42.124663-42.124663 42.124662H50.549595v31.593497c0 23.168564 18.956098 42.124663 42.124663 42.124663h879.866254c23.168564 0 42.124663-18.956098 42.124663-42.124663V195.332061c0-23.168564-18.956098-42.124663-42.124663-42.124663z" fill="#6E6E96" opacity=".15" p-id="43968"></path><path d="M90.568025 249.517014c0-23.168564 18.956098-42.124663 42.124662-42.124662h174.530903l40.456526-75.483183c10.9482-20.422036 27.616929-37.128678 62.024353-37.128678h262.605147c23.168564 0 50.0104 17.237412 59.64431 38.308168l33.99039 36.395709h236.075035v-10.531166c0-23.168564-18.956098-4.212466-42.124663-4.212466h-191.835713l-33.986178-74.307905c-9.638123-21.066544-36.479958-38.308168-59.648523-38.308168H378.110972c-23.168564 0-51.080366 16.706641-62.024353 37.128677l-40.456526 75.483183H80.036859c-23.168564 0-42.124663 18.956098-42.124663 42.124663v564.251432c0 23.168564 18.956098 42.124663 42.124663 42.124662h10.531166V249.517014z" fill="#FFFFFF" opacity=".37" p-id="43969"></path><path d="M955.690647 129.461726H763.846508a21.062331 21.062331 0 0 1 19.154084 12.300401l-33.986177-74.307905C736.027381 39.07905 701.413546 16.849865 670.207596 16.849865H373.898506c-30.696242 0-66.093596 21.188705-80.588692 48.241164l-40.456526 75.483183a21.053906 21.053906 0 0 1 18.564339-11.112486H75.824393c-34.841308 0-63.186994 28.345686-63.186994 63.186994v564.251431c0 34.841308 28.345686 63.186994 63.186994 63.186994h879.866254c34.841308 0 63.186994-28.345686 63.186994-63.186994V192.64872c0-34.841308-28.341473-63.186994-63.186994-63.186994z m21.062331 63.186994v564.251431c0 11.609557-9.448562 21.062331-21.062331 21.062332H75.824393c-11.613769 0-21.062331-9.452774-21.062332-21.062332V192.64872c0-11.613769 9.448562-21.062331 21.062332-21.062332h195.593234a21.062331 21.062331 0 0 0 18.560126-11.112486l40.456526-75.483183C337.734483 71.376028 358.44718 58.974528 373.898506 58.974528h296.313302c14.966893 0 34.268413 12.397288 40.490226 26.007766l33.99039 74.307905a21.062331 21.062331 0 0 0 19.154084 12.300402h191.844139a21.083394 21.083394 0 0 1 21.062331 21.058119z" fill="#6E6E96" p-id="43970"></path><path d="M510.197064 628.550517m-352.701375 0a352.701376 352.701376 0 1 0 705.402751 0 352.701376 352.701376 0 1 0-705.402751 0Z" fill="#EBEBEB" p-id="43971"></path><path d="M503.878365 263.211742c-194.788653 0-352.705588 157.912723-352.705588 352.701376 0 194.788653 157.90851 352.705588 352.705588 352.705588s352.705588-157.90851 352.705588-352.705588c0-194.792865-157.912723-352.701376-352.705588-352.701376z m14.549859 690.65912c-172.576318 0-312.489173-139.908642-312.489173-312.493386 0-172.580531 139.908642-312.48496 312.489173-312.48496s312.489173 139.90443 312.489172 312.48496c0 172.588955-139.912855 312.493385-312.489172 312.493386z" fill="#FFFFFF" opacity=".48" p-id="43972"></path><path d="M510.197064 296.911472c182.867373 0 331.643257 148.771671 331.643257 331.639045s-148.771671 331.643257-331.643257 331.643256-331.643257-148.767459-331.643256-331.643256c0.004212-182.867373 148.775884-331.639044 331.643256-331.639045z m-373.763707 331.639045c0 206.099125 167.668795 373.767919 373.76792 373.767919 206.094912 0 373.767919-167.668795 373.767919-373.767919 0-206.094912-167.67722-373.763707-373.767919-373.763707-206.099125 0-373.767919 167.668795-373.76792 373.763707zM763.846508 129.461726H386.030409a21.062331 21.062331 0 1 0 0 42.124662h377.816099a21.062331 21.062331 0 1 0 0-42.124662z" fill="#6E6E96" p-id="43973"></path><path d="M512.122162 628.045021m-247.326532 0a247.326532 247.326532 0 1 0 494.653063 0 247.326532 247.326532 0 1 0-494.653063 0Z" fill="#00CCC6" p-id="43974"></path><path d="M512.122162 401.78082c124.760613 0 226.259988 101.503587 226.259988 226.264201s-101.503587 226.259988-226.259988 226.259988c-124.760613 0-226.259988-101.499375-226.259989-226.259988 0-60.440466 23.535049-117.258211 66.266307-159.993682 42.739683-42.73547 99.557428-66.270519 159.993682-66.270519z m-268.384651 226.268413c0 147.988152 120.396498 268.388863 268.384651 268.388863s268.384651-120.400711 268.38465-268.388863c0-147.992365-120.396498-268.388863-268.38465-268.388863-71.687751 0-139.087211 27.916014-189.775818 78.608833s-78.608833 118.088067-78.608833 189.78003z" fill="#6E6E96" p-id="43975"></path><path d="M630.34924 847.097479c72.559731-43.101955 121.205292-122.228921 121.205292-212.746396 0-136.589219-110.728888-247.322319-247.313895-247.32232-136.593431 0-247.326532 110.733101-247.326532 247.32232 0 136.593431 110.733101 247.326532 247.326532 247.326532a247.073784 247.073784 0 0 0 76.607912-12.152965 209.174225 209.174225 0 0 1-60.836438 9.010465c-115.699598 0-209.49016-93.803199-209.49016-209.49016 0-115.708023 93.794774-209.498585 209.49016-209.498585 115.708023 0 209.49016 93.794774 209.49016 209.498585-0.008425 75.179885-39.639308 141.092345-99.153031 178.052524z" fill="#6E6E96" opacity=".15" p-id="43976"></path><path d="M637.952741 694.083854c9.528599 28.379385-26.694399 66.148358-80.913052 84.35885-66.990851 22.486145-105.897189 9.949845-115.425788-18.442177s34.3653-43.312578 88.583953-61.518858c54.218653-18.206279 98.226288-32.802475 107.754887-4.397815z" fill="#FFFFFF" opacity=".54" p-id="43977"></path><path d="M824.122688 241.083657h101.09919v86.882117h-101.09919z" fill="#FFAA00" p-id="43978"></path><path d="M925.221878 306.903442h-101.09919a21.062331 21.062331 0 0 1 21.062331 21.062332V241.083657a21.062331 21.062331 0 0 1-21.062331 21.062331h101.09919a21.062331 21.062331 0 0 1-21.062331-21.062331v86.882117a21.062331 21.062331 0 0 1 21.062331-21.062332z m0-86.882116h-101.09919a21.062331 21.062331 0 0 0-21.062331 21.062331v86.882117a21.062331 21.062331 0 0 0 21.062331 21.062331h101.09919a21.062331 21.062331 0 0 0 21.062332-21.062331V241.083657a21.062331 21.062331 0 0 0-21.062332-21.062331z" fill="#6E6E96" p-id="43979"></path><path d="M721.936681 366.18548c64.042125 60.116106 104.111104 145.481735 104.111104 240.249589 0 181.995393-147.537419 329.537024-329.537023 329.537023s-329.537024-147.533206-329.537024-329.537023a328.151122 328.151122 0 0 1 28.998618-135.127493c-28.493122 50.890805-44.795366 109.51991-44.795367 171.986573 0 194.788653 157.90851 352.705588 352.705589 352.705588s352.705588-157.90851 352.705588-352.705588c-0.004212-112.443362-52.689528-212.523136-134.651485-277.108669z" fill="#6E6E96" opacity=".15" p-id="43980"></path></svg>