<?xml version="1.0" standalone="no"?><!DOCTYPE svg PUBLIC "-//W3C//DTD SVG 1.1//EN" "http://www.w3.org/Graphics/SVG/1.1/DTD/svg11.dtd"><svg t="1732242692688" class="icon" viewBox="0 0 1107 1024" version="1.1" xmlns="http://www.w3.org/2000/svg" p-id="34047" xmlns:xlink="http://www.w3.org/1999/xlink" width="216.2109375" height="200"><path d="M1003.294924 452.270614V738.558531c0 47.418615-38.75678 69.794658-38.75678 69.794658s-266.060886 153.676312-302.010793 167.859793c-26.12585 10.328417-43.344263 8.12239-43.344264 8.12239s-102.560518-30.98525-141.124325-41.173322v-377.897244a14.867657 14.867657 0 0 0-14.867657-14.876428l-159.447945-36.353395a14.867657 14.867657 0 0 0-14.872042 14.867657v368.042487c-58.887324-15.354474-109.875932-35.660448-118.121122-37.309486-24.779428-4.9515-27.252985-19.827928-27.252985-19.827928V434.262767l204.559661-268.407257c-0.004386 0.004386 619.266417 54.672629 655.238252 286.415104z" fill="#A6A6C9" p-id="34048"></path><path d="M623.599527 1017.425776c-4.324339 0-7.245242-0.289459-8.604821-0.464888a32.967604 32.967604 0 0 1-5.324287-1.135906c-1.017492-0.307002-102.446489-30.937006-140.010348-40.85755a32.893046 32.893046 0 0 1-24.494355-31.800997v-363.143615l-123.401552-28.138905v345.065598a32.893046 32.893046 0 0 1-41.190866 31.831697c-40.897021-10.666118-77.925819-23.582121-100.047489-31.296637-6.758425-2.355142-14.385226-5.017286-16.823697-5.714619-34.305254-7.074198-49.804458-29.463398-52.650802-46.55901a33.200048 33.200048 0 0 1-0.447346-5.39446V434.262767c0-7.20577 2.363914-14.209796 6.73211-19.937571l204.559662-268.407257a32.875503 32.875503 0 0 1 29.073067-12.823903c6.473351 0.574532 160.30755 14.556269 320.34757 57.461959 224.773535 60.251289 347.403197 146.610886 364.485652 256.671018 0.263144 1.666581 0.390331 3.355091 0.390331 5.043601V738.558531c0 52.422744-34.699971 86.447311-55.203303 98.280036-27.445958 15.850063-269.240548 155.316578-306.383376 169.97372-22.187456 8.771479-39.984787 10.61349-51.00615 10.613489z m-112.643333-99.301913c39.919001 11.323979 97.762519 28.700279 113.687139 33.502664 4.144524-0.122801 13.249319-1.03942 25.792534-5.999692 24.533827-9.679327 195.266279-106.621713 297.353138-165.583594 1.877097-1.188535 22.617259-14.994843 22.617258-41.48471v-283.564373c-14.161553-78.732795-126.239126-149.996676-316.124102-200.897569-123.664697-33.151805-246.342602-48.677323-291.243803-53.633208L176.390057 445.371846v381.840023l0.806976 0.171044c4.697127 0.938548 10.091587 2.784945 24.994329 7.982046 13.266862 4.626955 32.129928 11.205564 53.791095 17.933288v-324.395607c0-26.33198 21.428723-47.760703 47.765089-47.760703 2.4604 0 4.912028 0.276302 7.311028 0.824519l156.855973 35.76132c24.130339 2.377071 43.046033 22.788302 43.046033 47.53703v352.859057z" fill="#5A5A7D" p-id="34049"></path><path d="M631.923661 1008.728855a32.88866 32.88866 0 0 1-32.893046-32.893046v-406.505422c0-18.170119 14.722927-32.893046 32.893046-32.893047s32.893046 14.722927 32.893046 32.893047v406.505422a32.893046 32.893046 0 0 1-32.893046 32.893046z" fill="#5A5A7D" p-id="34050"></path><path d="M770.631444 114.533587H389.436124c0.403488 0 0.815748 0.008771 1.223621 0.0307-10.565246-0.508746-46.545853-0.649089-65.992222 18.792894a24.678556 24.678556 0 0 0-1.548166 1.692895L60.843364 449.362869a25.393432 25.393432 0 0 1 0.859605-0.97802c-12.92916 13.981738-17.845574 27.323157-17.845574 38.87958 0 12.034469 5.324288 22.134827 12.481815 29.020438 0.903462 0.863991 1.789382 1.460451 2.688458 2.19287a32.616745 32.616745 0 0 0 16.850011 10.639804c17.271042 4.473454 34.594713-5.635675 41.239108-10.188073a25.261859 25.261859 0 0 0 5.412003-4.999743c22.713745-28.086276 215.151222-266.152987 243.895359-305.229925l257.289407 419.022322a24.836443 24.836443 0 0 1-1.653423-3.179661c6.319851 14.556269 27.174042 32.059756 58.703123 20.604204 20.516489-7.464529 343.723561-134.234329 357.468469-139.628788 1.842011-0.719261 3.591921-1.649038 5.210258-2.776173 3.144575-2.179713 18.977095-14.14401 21.836597-35.634133 1.394665-10.49946-0.017543-26.674068-14.696613-44.098611 0.087715 0.092101 0.359631 0.44296 0.44296 0.539446l-0.767505-0.934163c0.078943 0.087715 0.407874 0.486817 0.47366 0.574532-2.008669-2.517414-200.923883-252.807182-221.089513-278.472529-23.805794-30.309846-47.677374-31.686968-59.010125-30.182659zM67.294787 523.788868c0.390331 0.166658 0.758733 0.214901 1.144678 0.35963-0.377174-0.135958-0.780662-0.201744-1.144678-0.35963z m20.025286-0.052629c-0.302616 0.135958-0.614004 0.201744-0.916619 0.320159 0.29823-0.114029 0.627161-0.188587 0.916619-0.320159z m-14.091381 1.793767c-0.0614-0.008771-0.114029-0.043857-0.184201-0.052629 0.592075 0.105258 1.153449 0.114029 1.732367 0.179816-0.517517-0.052629-1.035035-0.039472-1.548166-0.127187z" fill="#FF8A8A" opacity=".2" p-id="34051"></path><path d="M661.075671 681.73689c-33.375478 0-56.054136-19.683199-66.439567-38.511179l-231.347759-376.770108c-60.795121 77.114458-185.950969 232.005619-215.181922 268.15727a58.054034 58.054034 0 0 1-12.429186 11.468709c-9.267068 6.350551-28.239777 17.047369-50.817564 17.047369-5.876891 0-11.674839-0.732418-17.227184-2.166555a65.290504 65.290504 0 0 1-31.147522-18.367477c-0.850833-0.692947-1.842011-1.548166-2.894588-2.552501-14.613284-14.065067-22.62603-32.787788-22.62603-52.777989 0-14.499255 4.429597-36.625311 25.428517-59.939901l261.469017-313.352316c1.113978-1.337651 2.302513-2.635829 3.548064-3.876993 24.853986-24.853986 62.795018-28.564321 83.197478-28.564322 2.311285 0 4.346268 0.048243 6.026006 0.109644h378.134073a79.381885 79.381885 0 0 1 7.938189-0.394717c16.771068 0 49.313255 5.604975 78.807353 43.155677 19.683199 25.05573 213.072382 268.385328 220.699183 277.981326 17.157013 20.63929 24.853986 45.146802 21.669939 69.06224-4.561169 34.314026-28.476607 53.321821-35.69992 58.325949a58.032105 58.032105 0 0 1-11.977455 6.381251c-3.324391 1.302565-336.662521 132.067773-358.196501 139.900705-10.37666 3.771736-20.779634 5.683918-30.932621 5.683918z m-8.42062-69.645543c0.929777 1.254321 3.455963 3.859451 8.42062 3.85945 2.464786 0 5.311131-0.578918 8.455706-1.719209 17.639444-6.420723 283.472272-110.612736 355.731716-138.962156 1.723596-1.412208 6.52598-5.876891 7.403128-12.499358 0.732418-5.495332-1.499923-11.490637-6.626852-17.819259l-0.403488-0.478046-0.035086-0.043857-0.017543-0.017543-0.758733-0.921006a34.173682 34.173682 0 0 1-0.938548-1.201692c-15.845677-19.9288-200.094979-251.763376-220.11588-277.248908-9.122338-11.613438-18.731493-18.007846-27.07317-18.007846a13.025646 13.025646 0 0 0-1.754295 0.109643 33.015847 33.015847 0 0 1-4.315568 0.285073H392.111425a34.857857 34.857857 0 0 1-2.872659 0 31.629953 31.629953 0 0 1-2.442857-0.087715c-0.671018-0.013157-1.403437-0.021929-2.19287-0.021928-16.442137 0-30.700176 3.565606-36.480581 9.100409l-262.026006 314.018948-5.66199-4.723442 5.412003 5.004129c-0.434188 0.513132-0.877148 1.00872-1.333265 1.486766-6.986483 8.03906-7.767145 13.174761-7.767145 15.060629 0 2.087612 0.912234 3.670864 1.855168 4.749756a32.814103 32.814103 0 0 1 18.911309 0.447346l0.149115-0.096487c25.103973-31.051036 214.388104-265.258296 242.263864-303.159856a32.893046 32.893046 0 0 1 54.523513 2.276198l256.714876 418.083775 0.578917 0.942934-6.363708 3.907694 6.850526-2.973532a6.806668 6.806668 0 0 0-0.478046-0.925391c0.311388 0.517517 0.618389 1.043806 0.903462 1.574481z" fill="#5A5A7D" opacity=".2" p-id="34052"></path><path d="M775.017183 44.361755H393.821864c0.403488 0 0.815748 0.008771 1.223621 0.0307-10.565246-0.508746-46.545853-0.649089-65.992222 18.792894a24.678556 24.678556 0 0 0-1.548166 1.692895L65.229103 379.191037c0.276302-0.333316 0.561375-0.657861 0.859605-0.97802C53.159548 392.190369 48.243134 405.54056 48.243134 417.092597c0 12.034469 5.324288 22.134827 12.481815 29.016053 0.903462 0.868376 1.789382 1.460451 2.688458 2.197255a32.607973 32.607973 0 0 0 16.850011 10.635419c17.271042 4.47784 34.594713-5.63129 41.239109-10.188073a25.489918 25.489918 0 0 0 5.412002-4.999743c22.713745-28.090661 215.151222-266.152987 243.895359-305.229926l257.289408 419.022323a24.836443 24.836443 0 0 1-1.653424-3.179661c6.319851 14.556269 27.174042 32.059756 58.703123 20.604204 20.516489-7.464529 343.723561-134.234329 357.468469-139.624403 1.842011-0.723647 3.591921-1.649038 5.210259-2.780559 3.144575-2.179713 18.977095-14.14401 21.836597-35.634133 1.394665-10.49946-0.017543-26.674068-14.696613-44.098611 0.087715 0.092101 0.359631 0.44296 0.442959 0.539446l-0.767504-0.934162c0.078943 0.087715 0.407874 0.486817 0.47366 0.574532-2.008669-2.5218-200.923883-252.811567-221.089514-278.476915-23.805794-30.301074-47.677374-31.678196-59.010125-30.173888zM71.680526 453.617036c0.390331 0.166658 0.758733 0.214901 1.144678 0.364016-0.377174-0.140344-0.780662-0.20613-1.144678-0.364016z m20.025287-0.048243c-0.302616 0.131572-0.614004 0.197358-0.91662 0.320159 0.29823-0.118415 0.627161-0.192973 0.91662-0.320159z m-14.091381 1.789381c-0.0614-0.008771-0.114029-0.043857-0.184201-0.052628 0.592075 0.105258 1.153449 0.114029 1.732367 0.179815-0.517517-0.052629-1.035035-0.039472-1.548166-0.127187z" fill="#68A58A" p-id="34053"></path><path d="M665.461411 611.565058c-33.371092 0-56.054136-19.683199-66.439568-38.506793l-231.347758-376.77888C306.909664 273.341214 181.740659 428.267462 152.492162 464.441041a58.343492 58.343492 0 0 1-12.411643 11.459937c-9.275839 6.359322-28.244162 17.056141-50.83072 17.056141-5.885662 0-11.68361-0.732418-17.240342-2.170941a65.281732 65.281732 0 0 1-31.147522-18.367477c-0.859605-0.701718-1.872711-1.570095-2.947217-2.600743C23.362834 455.814291 15.350088 437.091569 15.350088 417.092597c0-14.508026 4.433983-36.642853 25.454832-59.970601L302.247623 43.80038c1.109592-1.333265 2.302513-2.631444 3.548063-3.876993 24.853986-24.853986 62.795018-28.564321 83.197478-28.564322 2.311285 0 4.346268 0.048243 6.026006 0.109644h378.134074a79.381885 79.381885 0 0 1 7.938188-0.394717c16.771068 0 49.317641 5.604975 78.807353 43.155677 19.047267 24.239982 201.665073 254.04396 219.677306 276.696305 0.855219 0.942934 1.662195 1.938497 2.403385 2.982302 16.187764 20.279659 23.384763 44.107382 20.292817 67.364959-4.565555 34.335954-28.485378 53.330592-35.708691 58.334721a58.093505 58.093505 0 0 1-11.946755 6.368094l-0.62716 0.245601c-56.264652 22.069041-337.943157 132.510733-357.595656 139.663874-10.37666 3.76735-20.779634 5.679533-30.93262 5.679533z m-8.42062-69.645543c0.929777 1.254321 3.455963 3.859451 8.42062 3.859451 2.464786 0 5.311131-0.578918 8.455705-1.71921 14.64837-5.333059 200.704596-78.153878 355.718559-138.953385 1.736753-1.42098 6.539138-5.885662 7.416286-12.503743 0.732418-5.495332-1.499923-11.490637-6.631238-17.823645l-0.399103-0.47366-0.035086-0.043858c-0.008771-0.004386-0.017543-0.008771-0.013157-0.017543l-0.763118-0.925391a32.515873 32.515873 0 0 1-0.91662-1.170992c-15.249216-19.183225-200.590567-252.394922-220.137808-277.279608-9.122338-11.613438-18.731493-18.007846-27.07317-18.007846a13.025646 13.025646 0 0 0-1.754296 0.109643 33.015847 33.015847 0 0 1-4.315568 0.285073H396.497165a34.857857 34.857857 0 0 1-2.87266 0 31.629953 31.629953 0 0 1-2.442857-0.087715c-0.671018-0.013157-1.403437-0.021929-2.192869-0.021928-16.442137 0-30.700176 3.565606-36.480581 9.100409l-262.026007 314.018948-5.635675-4.701513 5.385688 4.9822a31.480838 31.480838 0 0 1-1.438522 1.605181c-6.894382 7.973274-7.666273 13.065118-7.666273 14.942214 0 2.091998 0.91662 3.67525 1.855168 4.749756a32.722002 32.722002 0 0 1 18.906923 0.447346l0.153501-0.096487c98.670367-122.037587 221.050042-274.314848 242.263864-303.159856a32.893046 32.893046 0 0 1 54.523513 2.276198l256.714876 418.083775 0.578917 0.942934-6.359322 3.907694 6.846139-2.973532a7.26717 7.26717 0 0 0-0.47366-0.921005c0.315773 0.513132 0.618389 1.043806 0.903463 1.570095z" fill="#5A5A7D" p-id="34054"></path><path d="M288.871118 896.945127l189.19203 46.216923v-398.269004l-189.19203-42.304843z" fill="#68A58A" p-id="34055"></path><path d="M478.063148 976.055096a32.849189 32.849189 0 0 1-7.806617-0.938548L281.068887 928.899625a32.893046 32.893046 0 0 1-25.08643-31.954498v-394.356924a32.897432 32.897432 0 0 1 40.072502-32.103613l189.187644 42.304843a32.893046 32.893046 0 0 1 25.713591 32.099227v398.269004a32.884275 32.884275 0 0 1-32.893046 32.897432z m-156.298984-104.937589l123.401552 30.147573V571.242569l-123.401552-27.595073v327.470011z" fill="#5A5A7D" p-id="34056"></path></svg>